<svg width="208" height="143" viewBox="0 0 208 143" fill="none" xmlns="http://www.w3.org/2000/svg">
<path d="M99.0412 53.9877H109.345H119.649M99.0412 53.9877H88.7373V80.7778H129.953V53.9877H119.649M99.0412 53.9877V43.6173V34.9753C99.0412 28.9259 105.399 26.3333 108.907 26.3333C112.414 26.3333 119.43 28.9259 119.43 34.9753L119.649 53.9877M64.1832 15.0988L108.03 3L151.876 15.0988V80.7778C151.876 96.3333 132.584 119.667 108.03 119.667C83.4757 119.667 64.1832 96.3333 64.1832 80.7778V53.9877V15.0988Z" stroke="#1B1A57" stroke-width="5" stroke-linejoin="round"/>
<ellipse cx="199.231" cy="11.642" rx="8.76931" ry="8.64198" fill="#2F80ED" fill-opacity="0.3"/>
<ellipse cx="14.9078" cy="91.858" rx="14.9078" ry="14.6914" fill="#2F80ED" fill-opacity="0.3"/>
<ellipse cx="189.584" cy="124.852" rx="18.4156" ry="18.1481" fill="#2F80ED" fill-opacity="0.3"/>
</svg>
